<?xml version="1.0" encoding="UTF-8"?>
<svg xmlns="http://www.w3.org/2000/svg" viewBox="0 0 200 40" width="200" height="40">
  <defs>
    <linearGradient id="logoGradient" x1="0%" y1="0%" x2="100%" y2="100%">
      <stop offset="0%" style="stop-color:#2563eb;stop-opacity:1" />
      <stop offset="100%" style="stop-color:#06b6d4;stop-opacity:1" />
    </linearGradient>
  </defs>
  
  <!-- Chain links -->
  <g transform="translate(10, 10)">
    <!-- First chain link -->
    <path d="M12 0 C18.6 0 24 5.4 24 12 C24 18.6 18.6 24 12 24 C5.4 24 0 18.6 0 12 C0 5.4 5.4 0 12 0 Z M12 4 C7.6 4 4 7.6 4 12 C4 16.4 7.6 20 12 20 C16.4 20 20 16.4 20 12 C20 7.6 16.4 4 12 4 Z" fill="white"/>
    
    <!-- Second chain link (rotated) -->
    <path d="M32 0 C38.6 0 44 5.4 44 12 C44 18.6 38.6 24 32 24 C25.4 24 20 18.6 20 12 C20 5.4 25.4 0 32 0 Z M32 4 C27.6 4 24 7.6 24 12 C24 16.4 27.6 20 32 20 C36.4 20 40 16.4 40 12 C40 7.6 36.4 4 32 4 Z" fill="white" transform="rotate(45 32 12)"/>
  </g>
  
  <!-- Text -->
  <text x="60" y="25" font-family="Arial, sans-serif" font-size="20" font-weight="bold" fill="white">
    ChainMesh
  </text>
  
  <text x="60" y="35" font-family="Arial, sans-serif" font-size="10" fill="rgba(255,255,255,0.8)">
    Web3 Bridge
  </text>
</svg>