<svg width="128" height="128" viewBox="0 0 128 128" fill="none" xmlns="http://www.w3.org/2000/svg">
  <circle cx="64" cy="64" r="60" fill="#FF0420"/>
  <path d="M37 64C37 49.6406 48.6406 38 63 38H67C81.3594 38 93 49.6406 93 64C93 78.3594 81.3594 90 67 90H63C48.6406 90 37 78.3594 37 64Z" fill="white"/>
  <path d="M48 64C48 55.1634 55.1634 48 64 48H66C74.8366 48 82 55.1634 82 64C82 72.8366 74.8366 80 66 80H64C55.1634 80 48 72.8366 48 64Z" fill="#FF0420"/>
  <path d="M43 64C43 52.402 52.402 43 64 43H68C79.598 43 89 52.402 89 64C89 75.598 79.598 85 68 85H64C52.402 85 43 75.598 43 64ZM54 64C54 69.5228 58.4772 74 64 74H68C73.5228 74 78 69.5228 78 64C78 58.4772 73.5228 54 68 54H64C58.4772 54 54 58.4772 54 64Z" fill="white"/>
</svg>
